HIERARCHY
ROOT SpineBase
{
  OFFSET 0.000000 0.000000 0.000000
  CHANNELS 6 Xposition Yposition Zposition Zrotation Xrotation Yrotation
  JOINT SpineMid
  {
    OFFSET 0.000000 26.489333 0.000000
    CHANNELS 3 Zrotation Xrotation Yrotation
    JOINT SpineShoulder
    {
      OFFSET -0.032273 19.919747 -0.671509
      CHANNELS 3 Zrotation Xrotation Yrotation
      JOINT Neck
      {
        OFFSET -0.025928 6.646697 -0.510911
        CHANNELS 3 Zrotation Xrotation Yrotation
        JOINT Head
        {
          OFFSET -3.404569 12.287178 0.579426
          CHANNELS 3 Zrotation Xrotation Yrotation
          End Site
          {
            OFFSET 0 0 0
          }
        }
      }
      JOINT ShoulderLeft
      {
        OFFSET -11.806122 -4.088031 3.645642
        CHANNELS 3 Zrotation Xrotation Yrotation
        JOINT ElbowLeft
        {
          OFFSET -4.866157 -15.456497 2.337736
          CHANNELS 3 Zrotation Xrotation Yrotation
          JOINT WristLeft
          {
            OFFSET 8.152951 2.425631 -15.466797
            CHANNELS 3 Zrotation Xrotation Yrotation
            JOINT HandLeft
            {
              OFFSET 5.602182 2.021943 0.876611
              CHANNELS 3 Zrotation Xrotation Yrotation
              JOINT HandTipLeft
              {
                OFFSET 1.031747 2.606025 -1.440942
                CHANNELS 3 Zrotation Xrotation Yrotation
                End Site
                {
                  OFFSET 0 0 0
                }
              }
              JOINT ThumbLeft
              {
                OFFSET 1.726922 -5.418286 -0.363453
                CHANNELS 3 Zrotation Xrotation Yrotation
                End Site
                {
                  OFFSET 0 0 0
                }
              }
            }
          }
        }
      }
      JOINT ShoulderRight
      {
        OFFSET 8.464930 -4.883604 -5.830694
        CHANNELS 3 Zrotation Xrotation Yrotation
        JOINT ElbowRight
        {
          OFFSET 2.488342 -22.267258 -4.371999
          CHANNELS 3 Zrotation Xrotation Yrotation
          JOINT WristRight
          {
            OFFSET -7.425454 -21.389272 -1.088934
            CHANNELS 3 Zrotation Xrotation Yrotation
            JOINT HandRight
            {
              OFFSET -3.215690 -4.877894 -0.303868
              CHANNELS 3 Zrotation Xrotation Yrotation
              JOINT HandTipRight
              {
                OFFSET -1.641701 -6.087865 -0.775930
                CHANNELS 3 Zrotation Xrotation Yrotation
                End Site
                {
                  OFFSET 0 0 0
                }
              }
              JOINT ThumbRight
              {
                OFFSET 0.932421 -1.881259 -4.383932
                CHANNELS 3 Zrotation Xrotation Yrotation
                End Site
                {
                  OFFSET 0 0 0
                }
              }
            }
          }
        }
      }
    }
  }
  JOINT HipLeft
  {
    OFFSET -6.873765 -0.388655 -1.184908
    CHANNELS 3 Zrotation Xrotation Yrotation
    JOINT KneeLeft
    {
      OFFSET -4.447316 -31.942557 10.946545
      CHANNELS 3 Zrotation Xrotation Yrotation
      JOINT AnkleLeft
      {
        OFFSET 9.624094 -43.390842 14.404444
        CHANNELS 3 Zrotation Xrotation Yrotation
        JOINT FootLeft
        {
          OFFSET -5.279078 -5.739209 -5.571769
          CHANNELS 3 Zrotation Xrotation Yrotation
          End Site
          {
            OFFSET 0 0 0
          }
        }
      }
    }
  }
  JOINT HipRight
  {
    OFFSET 6.203866 2.340711 -4.995806
    CHANNELS 3 Zrotation Xrotation Yrotation
    JOINT KneeRight
    {
      OFFSET -7.896620 -26.852633 9.473581
      CHANNELS 3 Zrotation Xrotation Yrotation
      JOINT AnkleRight
      {
        OFFSET 0.818337 -45.371800 10.542399
        CHANNELS 3 Zrotation Xrotation Yrotation
        JOINT FootRight
        {
          OFFSET -4.922647 -4.195537 -9.408513
          CHANNELS 3 Zrotation Xrotation Yrotation
          End Site
          {
            OFFSET 0 0 0
          }
        }
      }
    }
  }
}
MOTION
Frames: 16
Frame Time: 0.033333
43.408015 101.858270 360.322687 -0.000000 0.000000 16.246431 -0.000000 0.000000 -16.246431 -0.000000 0.000000 0.000000 -0.000000 0.000000 0.000000 0.000000 0.000000 0.000000 -0.000000 0.000000 0.000000 -0.000000 0.000000 0.000000 -0.000000 0.000000 0.000000 -0.000000 0.000000 0.000000 0.000000 0.000000 0.000000 0.000000 0.000000 0.000000 -0.000000 0.000000 0.000000 -0.000000 0.000000 0.000000 -0.000000 0.000000 0.000000 -0.000000 0.000000 0.000000 0.000000 0.000000 0.000000 0.000000 0.000000 0.000000 -0.000000 0.000000 -16.246431 -0.000000 0.000000 0.000000 -0.000000 0.000000 0.000000 0.000000 0.000000 0.000000 -0.000000 0.000000 -16.246431 -0.000000 0.000000 0.000000 -0.000000 0.000000 0.000000 0.000000 0.000000 0.000000
43.603149 102.275404 360.177437 0.099836 0.107576 16.993231 -0.126917 -0.073701 -16.993407 -0.000000 0.000000 0.000000 -0.000000 0.000000 0.000000 0.000000 0.000000 0.000000 -0.000000 0.000000 0.000000 -0.000000 0.000000 0.000000 -0.000000 0.000000 0.000000 -2.196446 3.080320 -2.392444 0.000000 0.000000 0.000000 0.000000 0.000000 0.000000 -0.597851 -0.614071 0.045633 1.558911 -0.018525 0.113701 -1.259946 2.885058 -1.616246 2.047094 -7.440194 2.839345 0.000000 0.000000 0.000000 0.000000 0.000000 0.000000 -0.126917 -0.073701 -16.993407 -0.114517 2.875923 0.608069 -0.609761 -3.996010 1.058969 0.000000 0.000000 0.000000 0.328943 -0.717558 -16.628128 -1.583972 0.188979 -0.582491 0.016794 4.834644 -2.689479 0.000000 0.000000 0.000000
43.763514 102.641521 360.053875 0.178269 0.201073 17.647909 -0.230839 -0.137564 -17.648499 -0.000000 0.000000 0.000000 -0.000000 0.000000 0.000000 0.000000 0.000000 0.000000 -0.000000 0.000000 0.000000 -0.000000 0.000000 0.000000 0.435088 0.296386 -1.020519 -4.795793 5.229617 -3.430511 0.000000 0.000000 0.000000 0.000000 0.000000 0.000000 -1.303483 -1.234779 0.104255 3.327639 0.128111 0.123936 -2.631180 5.213408 -2.877391 4.299868 -13.246557 5.388488 0.000000 0.000000 0.000000 0.000000 0.000000 0.000000 -0.230839 -0.137564 -17.648499 -0.251197 5.326480 1.128499 -1.360276 -7.524394 2.201658 0.000000 0.000000 0.000000 0.719775 -1.228621 -16.979299 -2.938892 0.235441 -1.040452 0.262642 7.831764 -4.213998 0.000000 0.000000 0.000000
43.889110 102.956622 359.952002 0.234379 0.279709 18.214935 -0.310068 -0.192428 -18.216028 -0.000000 0.000000 0.000000 -0.000000 0.000000 0.000000 0.000000 0.000000 0.000000 -0.000000 0.000000 0.000000 -0.000000 0.000000 0.000000 0.502448 0.352691 -1.209620 -6.912119 7.115197 -4.985401 0.000000 0.000000 0.000000 0.000000 0.000000 0.000000 -2.117277 -1.862609 0.174088 5.299416 0.444882 0.018902 -4.145603 7.070290 -3.849851 6.661987 -17.750964 7.691073 0.000000 0.000000 0.000000 0.000000 0.000000 0.000000 -0.310068 -0.192428 -18.216028 -0.397353 7.329228 1.555560 -2.232069 -10.519561 3.382591 0.000000 0.000000 0.000000 1.180810 -1.533932 -17.306290 -4.064104 0.130786 -1.386116 0.535129 9.409200 -4.897296 0.000000 0.000000 0.000000
43.979937 103.220705 359.871817 0.267401 0.342802 18.697944 -0.363186 -0.238982 -18.699501 -0.000000 0.000000 0.000000 -0.559406 -0.838150 -0.210310 0.000000 0.000000 0.000000 -0.000000 0.000000 0.000000 -0.000000 0.000000 0.000000 0.468146 0.348928 -1.182952 -8.854562 8.588041 -6.489144 0.000000 0.000000 0.000000 0.000000 0.000000 0.000000 -3.039502 -2.497951 0.253286 7.466561 0.932459 -0.212736 -5.824346 8.516253 -4.582014 9.087008 -21.211298 9.766545 0.000000 0.000000 0.000000 0.000000 0.000000 0.000000 -0.363186 -0.238982 -18.699501 -0.542052 8.872800 1.884385 -3.197017 -12.924957 4.555481 0.000000 0.000000 0.000000 1.718826 -1.634051 -17.615042 -4.959381 -0.131354 -1.627760 0.756256 9.772910 -4.882783 0.000000 0.000000 0.000000
44.035995 103.433772 359.813320 0.276742 0.389781 19.099741 -0.389054 -0.277764 -19.101625 -0.000000 0.000000 0.000000 -0.850767 -0.942149 -0.228493 0.000000 0.000000 0.000000 -0.000000 0.000000 0.000000 -0.000000 0.000000 0.000000 0.332616 0.285005 -0.941228 -10.638092 9.704352 -7.976657 0.000000 0.000000 0.000000 0.000000 0.000000 0.000000 -4.070221 -3.141066 0.339928 9.820711 1.586927 -0.581293 -7.683612 9.596103 -5.111900 11.559409 -23.817748 11.622994 0.000000 0.000000 0.000000 0.000000 0.000000 0.000000 -0.389054 -0.277764 -19.101625 -0.676581 9.953265 2.111071 -4.218644 -14.694768 5.679527 0.000000 0.000000 0.000000 2.339183 -1.529237 -17.911253 -5.624564 -0.555424 -1.769407 0.917924 8.954981 -4.189316 0.000000 0.000000 0.000000
44.040524 103.630400 359.780398 0.214012 0.408770 19.710021 -0.339340 -0.312639 -19.711710 -0.000000 0.000000 0.000000 -1.230806 -0.936919 -0.212344 0.000000 0.000000 0.000000 -0.000000 0.000000 0.000000 -0.000000 0.000000 0.000000 -0.324082 0.392203 -0.936315 -10.028604 9.855098 -8.103816 0.000000 0.000000 0.000000 0.000000 0.000000 0.000000 -5.675548 -4.157161 0.450039 13.357743 2.693457 -1.266983 -10.701825 11.132016 -5.832006 15.771529 -27.017900 14.488563 0.000000 0.000000 0.000000 0.000000 0.000000 0.000000 -0.001638 0.509514 -19.822291 -0.828230 10.401128 2.514810 -6.587422 -20.500575 10.936522 0.000000 0.000000 0.000000 2.769777 -1.531774 -18.444280 -5.627206 -0.410161 -1.757786 0.521271 7.869491 -3.432194 0.000000 0.000000 0.000000
43.940299 103.683089 359.804143 0.082521 0.392800 20.027739 -0.212058 -0.340783 -20.028653 -0.000000 0.000000 0.000000 -1.815482 -1.043608 -0.221156 0.000000 0.000000 0.000000 -0.000000 0.000000 0.000000 -0.000000 0.000000 0.000000 -0.998033 0.293235 -0.367917 -11.717230 10.481889 -9.882280 0.000000 0.000000 0.000000 0.000000 0.000000 0.000000 -7.266360 -5.014680 0.558001 17.056961 3.764690 -2.125684 -14.874833 12.396583 -6.240711 21.537572 -29.219209 17.410562 0.000000 0.000000 0.000000 0.000000 0.000000 0.000000 0.257285 0.570849 -20.127424 -1.106953 10.480463 2.502304 -7.913245 -20.466878 11.613866 0.000000 0.000000 0.000000 3.390335 -1.039235 -18.863549 -5.220044 -1.074620 -1.535778 0.491440 3.967209 -1.056930 0.000000 0.000000 0.000000
43.900752 103.791585 359.944272 0.065507 0.401887 20.182743 -0.200144 -0.354608 -20.183592 -0.000000 0.000000 0.000000 -2.306694 -1.474356 -0.331484 0.000000 0.000000 0.000000 -0.000000 0.000000 0.000000 -0.000000 0.000000 0.000000 -0.842418 -0.465275 1.620688 -13.960192 11.422952 -12.624289 0.000000 0.000000 0.000000 0.000000 0.000000 0.000000 -8.660351 -5.412863 0.700558 20.118013 4.837714 -3.109744 -18.928390 11.617636 -5.671246 24.341967 -28.885189 17.549494 0.000000 0.000000 0.000000 0.000000 0.000000 0.000000 0.297005 0.663610 -20.302779 -1.230141 9.796688 2.343471 -9.296493 -19.030969 12.070822 0.000000 0.000000 0.000000 4.515342 -0.142539 -19.146462 -5.337581 -2.433321 -1.348476 1.499974 -2.637063 3.131676 0.000000 0.000000 0.000000
43.838560 103.782517 360.018615 0.082118 0.416923 20.000967 -0.219772 -0.363688 -20.001963 -0.000000 0.000000 0.000000 -2.946265 -1.407007 -0.289324 0.000000 0.000000 0.000000 -0.000000 0.000000 0.000000 -0.000000 0.000000 0.000000 -0.056154 -1.456488 4.074539 -14.639029 11.156606 -14.284603 0.000000 0.000000 0.000000 0.000000 0.000000 0.000000 -9.590345 -5.463677 0.833296 21.777184 5.529416 -3.787461 -19.761005 10.404449 -5.332121 22.053281 -26.598529 15.651139 0.000000 0.000000 0.000000 0.000000 0.000000 0.000000 0.184979 0.686365 -20.153020 -1.125206 8.424551 2.040668 -8.698915 -12.792343 8.103658 0.000000 0.000000 0.000000 5.814002 0.997694 -19.161257 -5.934552 -4.566181 -1.244124 6.206832 -14.953341 12.170651 0.000000 0.000000 0.000000
43.823723 103.638226 359.838544 0.120628 0.426072 19.206033 -0.254082 -0.362673 -19.207286 -0.000000 0.000000 0.000000 -3.198529 -0.796787 -0.092903 0.000000 0.000000 0.000000 -0.000000 0.000000 0.000000 -0.000000 0.000000 0.000000 0.262863 -2.163954 5.968848 -17.305067 13.299146 -17.209154 0.000000 0.000000 0.000000 0.000000 0.000000 0.000000 -9.594902 -5.279128 0.870594 21.583580 5.955531 -4.005527 -17.156507 8.110318 -4.671053 20.806872 -27.128167 15.224256 0.000000 0.000000 0.000000 0.000000 0.000000 0.000000 -0.089300 0.562378 -19.388183 -0.837671 7.903991 1.934158 -7.705783 -13.975100 9.245838 0.000000 0.000000 0.000000 7.119164 2.344110 -18.637621 -6.910506 -7.162288 -1.249500 11.348939 -22.623239 19.608622 0.000000 0.000000 0.000000
43.996788 103.471636 359.363424 0.230189 0.420633 17.969315 -0.348734 -0.329096 -17.971161 -0.000000 0.000000 0.000000 -3.061398 0.139196 0.188071 0.000000 0.000000 0.000000 -0.000000 0.000000 0.000000 -0.000000 0.000000 0.000000 0.137531 -2.289928 6.358436 -16.087983 13.393485 -17.198115 0.000000 0.000000 0.000000 0.000000 0.000000 0.000000 -9.576839 -5.734897 0.777427 21.365186 7.533499 -4.562245 -12.836534 4.831051 -3.647765 14.780800 -25.617132 12.934619 0.000000 0.000000 0.000000 0.000000 0.000000 0.000000 -0.536979 0.439212 -18.207605 -0.980682 7.380101 1.695141 -7.577632 -5.870074 3.830546 0.000000 0.000000 0.000000 8.302199 3.896891 -17.752979 -8.374896 -9.916945 -1.452683 14.783287 -25.391982 23.650856 0.000000 0.000000 0.000000
44.260970 103.340980 358.727692 0.335592 0.449200 17.033299 -0.452462 -0.331183 -17.035923 -0.000000 0.000000 0.000000 -2.901416 1.282289 0.528065 0.000000 0.000000 0.000000 -0.000000 0.000000 0.000000 -0.000000 0.000000 0.000000 0.759340 -2.306735 6.241244 -14.502486 12.455277 -15.944913 0.000000 0.000000 0.000000 0.000000 0.000000 0.000000 -8.987670 -5.401279 0.753008 20.058186 7.851086 -4.508330 -10.373235 2.208842 -2.325677 13.650371 -24.378592 11.457248 0.000000 0.000000 0.000000 0.000000 0.000000 0.000000 -1.003503 0.249425 -17.330076 -0.193059 7.169153 1.780754 -5.903198 -8.941243 5.083786 0.000000 0.000000 0.000000 9.195036 5.033569 -17.069515 -9.514697 -12.360086 -1.680472 14.742989 -23.877241 23.263825 0.000000 0.000000 0.000000
44.498474 104.324026 358.402940 0.516029 0.524234 18.265773 0.134924 0.006406 -18.245204 0.174956 -0.023733 0.043438 -3.640495 1.826758 0.757911 0.000000 0.000000 0.000000 -0.817746 -0.548001 -0.068884 -0.000000 0.000000 0.000000 2.176632 -3.516895 9.474935 -16.905407 13.419456 -18.774895 0.000000 0.000000 0.000000 0.000000 0.000000 0.000000 -9.506591 -5.789658 0.580604 21.607250 8.131791 -4.954053 -6.979343 -0.986412 -0.498777 8.374491 -21.816115 9.090768 0.000000 0.000000 0.000000 0.000000 0.000000 0.000000 -1.762470 0.053375 -18.677805 0.299112 8.647387 2.174274 -6.893952 -14.040608 8.803353 0.000000 0.000000 0.000000 9.167462 4.802450 -18.267150 -9.384030 -11.587338 -1.607866 10.860829 -19.691083 19.097963 0.000000 0.000000 0.000000
44.694929 102.622012 356.946839 0.549580 0.421197 18.115560 -0.653307 -0.229416 -18.118888 0.839689 0.356459 0.063337 -3.165437 3.048860 1.043475 0.000000 0.000000 0.000000 -0.840099 -0.355492 -0.068556 -0.000000 0.000000 0.000000 -0.336272 -2.166407 6.137130 -16.813180 6.303424 -15.155860 0.000000 0.000000 0.000000 0.000000 0.000000 0.000000 -9.011015 -5.519790 0.548680 19.607713 5.946277 -3.552648 -9.528457 11.272206 -7.803326 17.467771 -30.020949 19.133331 0.000000 0.000000 0.000000 0.000000 0.000000 0.000000 -1.705373 0.671257 -18.627137 0.850854 7.139415 2.161316 -9.043761 -18.492329 15.251495 0.000000 0.000000 0.000000 10.105329 5.467871 -18.204272 -10.809614 -15.453416 -2.128697 4.490088 -4.155410 10.333683 0.000000 0.000000 0.000000
45.284752 102.962120 355.821283 0.584884 0.380523 14.751176 -0.662500 -0.219038 -14.754385 0.871414 0.280168 0.065957 -2.782754 3.937138 1.253127 0.000000 0.000000 0.000000 -0.871746 -0.279132 -0.070211 -0.000000 0.000000 0.000000 -3.998712 0.544352 0.223065 -14.833295 -3.349868 -9.444804 0.000000 0.000000 0.000000 0.000000 0.000000 0.000000 -8.376142 -5.369071 0.471630 16.526766 1.854069 -1.217740 -5.643939 17.760291 -11.042190 17.617252 -30.882146 21.031499 0.000000 0.000000 0.000000 0.000000 0.000000 0.000000 -2.053246 0.228243 -15.264340 1.800646 5.046891 1.776134 -0.948286 -22.459226 17.343265 0.000000 0.000000 0.000000 9.954841 6.440283 -15.004803 -11.916354 -17.132143 -2.590104 3.281835 4.715061 4.094123 0.000000 0.000000 0.000000
